<?xml version="1.0"?>
<svg width="790" height="512.20805" xmlns="http://www.w3.org/2000/svg" xmlns:svg="http://www.w3.org/2000/svg" data-name="Layer 1">
 <g class="layer">
  <title>Layer 1</title>
  <path d="m394.73,480.35c0.03,43.72 -86.67,30.27 -192.81,30.36s-191.54,13.69 -191.58,-30.02s86.64,-53.3 192.78,-53.39s191.57,9.34 191.61,53.05z" fill="#e6e6e6" id="svg_3"/>
  <polygon fill="#a0616a" id="svg_5" points="294.33599853515625,423.3219909667969 280.4590148925781,423.3219909667969 273.8550109863281,369.7969970703125 294.33599853515625,369.7969970703125 294.33599853515625,423.3219909667969" transform="matrix(1 0 0 1 0 0)"/>
  <path d="m269.01,419.36l28.3,0a0,0 0 0 1 0,0l0,16.85a0,0 0 0 1 0,0l-43.61,0a0,0 0 0 1 0,0l0,-1.54a15.31,15.31 0 0 1 15.31,-15.31z" fill="#2f2e41" id="svg_6" transform="matrix(1 0 0 1 0 0)"/>
  <polygon fill="#a0616a" id="svg_7" points="396.33599853515625,502.3219909667969 382.458984375,502.3219909667969 375.85498046875,448.7969970703125 396.33599853515625,448.7969970703125 396.33599853515625,502.3219909667969" transform="matrix(1 0 0 1 0 0)"/>
  <path d="m371.01,498.36l28.3,0a0,0 0 0 1 0,0l0,16.85a0,0 0 0 1 0,0l-43.61,0a0,0 0 0 1 0,0l0,-1.54a15.31,15.31 0 0 1 15.31,-15.31z" fill="#2f2e41" id="svg_8" transform="matrix(1 0 0 1 0 0)"/>
  <path d="m460.34,343.31a10.32,10.32 0 0 0 -2.89,-15.56l-32.23,-131.29l-20.61,8.87l38.34,126.95a10.37,10.37 0 0 0 17.39,11.03z" fill="#a0616a" id="svg_9" transform="matrix(1 0 0 1 0 0)"/>
  <path d="m435.21,77.96a11.38,11.38 0 0 0 -17.42,1.15l-49.88,5.73l7.59,19.24l45.36,-8.49a11.44,11.44 0 0 0 14.35,-17.63z" fill="#a0616a" id="svg_10" transform="matrix(1 0 0 1 0 0)"/>
  <path d="m353,329.69l21.77,163.37l27.09,-5.57s-3.98,-118.99 9.56,-133.33s-17.42,-39.47 -17.42,-39.47l-41,15z" fill="#2f2e41" id="svg_11" transform="matrix(1 0 0 1 0 0)"/>
  <path d="m362,284.69l-10,15s-77,-32 -77,19s-4.41,85.61 -6,88s18.44,8.59 28,7c0,0 11.8,-82.22 11,-87c0,0 75.53,37.03 89.88,33.84s17.73,-14.47 20.12,-20.84s-1,-57 -1,-57l-47.81,-14.59l-7.19,16.59z" fill="#2f2e41" id="svg_12" transform="matrix(1 0 0 1 0 0)"/>
  <path d="m363.35,194.63l-2.85,-3.42s-31.92,-71.83 -19.38,-91.21s67.26,-22.23 68.97,-21.09s-4.08,15.94 -0.09,22.78c0,0 -42.39,9.19 -45.24,10.33s21.96,43.27 21.96,43.27l-2.85,25.66l-20.52,13.68z" fill="#ccc" id="svg_13" transform="matrix(1 0 0 1 0 0)"/>
  <path d="m419.22,159.28s-29.65,3.43 -30.79,3.43s-1.71,-7.42 -1.71,-7.42l-26.22,35.92s-12.92,104.19 -9.5,102.48s66.51,8.11 67.08,3.55s-0.57,-27.36 1.14,-28.5s29.64,-71.83 29.64,-71.83s-2.85,-14.82 -12.54,-19.95s-17.1,-17.68 -17.1,-17.68z" fill="#ccc" id="svg_14" transform="matrix(1 0 0 1 0 0)"/>
  <path d="m439.74,187.22l9.12,9.69s13.55,111.36 6.14,114.78s-22,3 -22,3l-14.35,-52.79l21.09,-74.68z" fill="#ccc" id="svg_15" transform="matrix(1 0 0 1 0 0)"/>
  <circle cx="390.73" cy="126" fill="#a0616a" id="svg_16" r="26.24" transform="matrix(1 0 0 1 0 0)"/>
  <path d="m384.57,130.09c-0.35,-5.45 -7.22,-5.63 -12.68,-5.68s-11.97,0.14 -15.06,-4.36c-2.04,-2.97 -1.65,-7.1 0.03,-10.29s4.46,-5.64 7.19,-8c7.04,-6.08 14.3,-12.12 22.75,-16.02s18.36,-5.47 27.13,-2.35c10.77,3.85 25.33,23.63 26.59,35s-3.29,22.95 -10.95,31.44s-25.18,5.07 -36.21,8.09c6.71,-9.49 2.29,-26.73 -8.45,-31.16l-0.34,3.33z" fill="#2f2e41" id="svg_17" transform="matrix(1 0 0 1 0 0)"/>
  <circle cx="140.72" cy="436.5" fill="#1f2937" id="svg_18" r="62.99" transform="matrix(1 0 0 1 0 0)"/>
  <path d="m203.13,424.81a45.16,45.16 0 0 1 -41.26,-26.79l-99.95,-225.09a59.83,59.83 0 1 1 111.87,-41.87l72.38,235.42a45.08,45.08 0 0 1 -43.04,58.33z" fill="#1f2937" id="svg_19" transform="matrix(1 0 0 1 0 0) rotate(0.833202 130 189.057) matrix(0.946693 0.322137 -0.322137 0.946693 68.3939 -103.194)"/>
 </g>
</svg>